# Blender 3.1.0
# www.blender.org
mtllib charger.mtl
o charging_station
v 0.500000 0.700000 0.400000
v 0.500000 0.700000 -0.400000
v 0.000000 0.700000 -0.200000
v 0.000000 0.700000 0.200000
v -0.500000 0.700000 -0.400000
v -0.400000 0.700000 -0.200000
v -0.500000 0.700000 0.400000
v -0.400000 0.700000 0.200000
v 0.000000 1.700000 -0.200000
v 0.000000 1.700000 0.200000
v -0.400000 1.540000 -0.200000
v -0.400000 1.540000 0.200000
v 0.500000 1.900000 -0.400000
v 0.500000 1.900000 0.400000
v -0.500000 1.500000 -0.400000
v -0.500000 1.500000 0.400000
v 0.500000 2.300000 -0.400000
v 0.500000 2.300000 0.400000
v -0.500000 2.300000 -0.400000
v -0.500000 2.300000 0.400000
v 0.245000 0.400000 -0.100000
v 0.158400 0.400000 -0.050000
v 0.158400 1.900000 -0.050000
v 0.245000 1.900000 -0.100000
v 0.158400 0.400000 0.050000
v 0.158400 1.900000 0.050000
v 0.245000 0.400000 0.100000
v 0.245000 1.900000 0.100000
v 0.331600 0.400000 0.050000
v 0.331600 1.900000 0.050000
v 0.331600 0.400000 -0.050000
v 0.331600 1.900000 -0.050000
v 0.500000 -0.000000 0.400000
v -0.500000 -0.000000 0.400000
v -0.500000 0.000000 -0.400000
v 0.500000 0.000000 -0.400000
vn -0.0000 1.0000 -0.0000
vn 1.0000 -0.0000 -0.0000
vn -0.0000 -0.0000 -1.0000
vn -1.0000 -0.0000 -0.0000
vn -0.0000 -0.0000 1.0000
vn 0.3714 -0.9285 -0.0000
vn -0.5000 -0.0000 -0.8660
vn -0.5000 -0.0000 0.8660
vn 0.5000 -0.0000 0.8660
vn 0.5000 -0.0000 -0.8660
vn -0.0000 -1.0000 -0.0000
vt 0.703100 0.156300
vt 0.640600 0.921900
vt 0.359400 0.171900
vt 1.000000 0.156300
vt 0.437500 0.921900
vt 0.359400 0.171900
vt 0.921900 0.375000
vt 1.000000 0.593800
vt 0.796900 0.687500
vt 0.781300 0.375000
vt 0.843800 0.593800
vt 0.796900 0.687500
vt 1.000000 0.593800
vt 0.640600 0.171900
vt 0.437500 0.343800
vt 0.921900 0.546900
vt 0.687500 0.687500
vt 0.234400 0.734400
vt 0.703100 0.593800
vt 0.640600 0.343800
vt 0.640600 0.171900
vt 0.781300 0.546900
vt 0.328100 0.734400
vt 0.687500 0.687500
vt 1.000000 1.000000
vt 0.796900 0.968800
vt 0.078100 0.468800
vt 0.843800 1.000000
vt 0.796900 0.968800
vt 0.218800 0.468800
vt 0.687500 0.921900
vt 0.234400 0.984400
vt 0.078100 0.671900
vt 0.328100 0.984400
vt 0.687500 0.921900
vt 0.218800 0.671900
vt -0.000000 0.234400
vt 0.640600 0.343800
vt 0.296900 0.125000
vt 0.296900 0.234400
vt 0.437500 0.343800
vt 0.296900 0.125000
vt 0.000000 0.703100
vt 0.000000 0.015600
vt -0.000000 0.750000
vt 0.296900 0.703100
vt 0.171900 0.750000
vt 0.000000 0.015600
vt 0.296900 0.218800
vt 0.640600 0.453100
vt 0.296900 0.218800
vt 0.437500 0.453100
vt 0.000000 0.218800
vt 0.000000 0.968800
vt 0.640600 0.734400
vt 0.171900 0.968800
vt 0.000000 0.218800
vt 0.437500 0.734400
vt 0.640600 0.015600
vt 0.703100 0.015600
vt 0.703100 0.015600
vt 0.640600 0.015600
vt 0.703100 0.656300
vt 0.640600 0.656300
vt 0.640600 0.656300
vt 0.703100 0.656300
vt 0.703100 0.015600
vt 0.640600 0.015600
vt 0.703100 0.656300
vt 0.640600 0.656300
vt 0.703100 0.015600
vt 0.640600 0.015600
vt 0.703100 0.656300
vt 0.640600 0.656300
vt 0.703100 0.015600
vt 0.640600 0.015600
vt 0.703100 0.656300
vt 0.640600 0.656300
vt 0.703100 0.015600
vt 0.640600 0.015600
vt 0.703100 0.656300
vt 0.640600 0.656300
vt 0.437500 0.453100
vt 0.640600 0.750000
vt 0.359400 -0.000000
vt 0.437500 0.734400
vt 0.640600 0.171900
vt 0.640600 -0.000000
vt 0.640600 0.734400
vt 0.640600 -0.000000
vt 0.437500 0.171900
vt 0.640600 0.453100
vt 0.437500 0.750000
vt 0.359400 -0.000000
s 0
usemtl ChargingStation
f 1/1/1 2/4/1 3/7/1 4/10/1
f 2/4/1 5/13/1 6/16/1 3/7/1
f 5/13/1 7/19/1 8/22/1 6/16/1
f 7/19/1 1/1/1 4/10/1 8/22/1
f 4/11/2 3/8/2 9/25/2 10/28/2
f 3/9/3 6/17/3 11/31/3 9/26/3
f 6/18/4 8/23/4 12/34/4 11/32/4
f 8/24/5 4/12/5 10/29/5 12/35/5
f 10/30/6 9/27/6 13/37/6 14/40/6
f 9/27/6 11/33/6 15/43/6 13/37/6
f 11/33/6 12/36/6 16/46/6 15/43/6
f 16/46/6 12/36/6 10/30/6 14/40/6
f 14/41/2 13/38/2 17/50/2 18/52/2
f 13/39/3 15/44/3 19/53/3 17/49/3
f 15/45/4 16/47/4 20/56/4 19/54/4
f 16/48/5 14/42/5 18/51/5 20/57/5
f 21/59/7 22/61/7 23/63/7 24/65/7
f 22/62/4 25/67/4 26/69/4 23/64/4
f 25/68/8 27/71/8 28/73/8 26/70/8
f 27/72/9 29/75/9 30/77/9 28/74/9
f 29/76/2 31/79/2 32/81/2 30/78/2
f 31/80/10 21/60/10 24/66/10 32/82/10
s 1
f 33/83/11 34/86/11 35/89/11 36/92/11
f 18/52/1 17/50/1 19/55/1 20/58/1
f 33/84/2 36/93/2 2/5/2 1/2/2
f 36/94/3 35/90/3 5/14/3 2/6/3
f 35/91/4 34/87/4 7/20/4 5/15/4
f 34/88/5 33/85/5 1/3/5 7/21/5
